<mxfile host="app.diagrams.net" agent="Mozilla/5.0 (X11; Linux x86_64) AppleWebKit/537.36 (KHTML, like Gecko) Chrome/129.0.0.0 Safari/537.36" version="24.7.17">
  <diagram name="Page-1" id="3B5FVDh_480xOFaThor2">
    <mxGraphModel dx="1389" dy="745" grid="1" gridSize="10" guides="1" tooltips="1" connect="1" arrows="1" fold="1" page="1" pageScale="1" pageWidth="850" pageHeight="1100" math="0" shadow="0">
      <root>
        <mxCell id="0" />
        <mxCell id="1" parent="0" />
        <mxCell id="RxAN3Sm5ADNWxIkwrC-l-19" style="edgeStyle=orthogonalEdgeStyle;rounded=0;orthogonalLoop=1;jettySize=auto;html=1;" edge="1" parent="1" source="RxAN3Sm5ADNWxIkwrC-l-1" target="RxAN3Sm5ADNWxIkwrC-l-18">
          <mxGeometry relative="1" as="geometry" />
        </mxCell>
        <mxCell id="RxAN3Sm5ADNWxIkwrC-l-20" value="Cria pedido com status &#39;waiting payment&#39;" style="edgeLabel;html=1;align=center;verticalAlign=middle;resizable=0;points=[];" vertex="1" connectable="0" parent="RxAN3Sm5ADNWxIkwrC-l-19">
          <mxGeometry x="-0.1793" y="-1" relative="1" as="geometry">
            <mxPoint as="offset" />
          </mxGeometry>
        </mxCell>
        <mxCell id="RxAN3Sm5ADNWxIkwrC-l-26" style="edgeStyle=orthogonalEdgeStyle;rounded=0;orthogonalLoop=1;jettySize=auto;html=1;entryX=0.5;entryY=0;entryDx=0;entryDy=0;" edge="1" parent="1" source="RxAN3Sm5ADNWxIkwrC-l-1" target="RxAN3Sm5ADNWxIkwrC-l-22">
          <mxGeometry relative="1" as="geometry" />
        </mxCell>
        <mxCell id="RxAN3Sm5ADNWxIkwrC-l-1" value="Order service" style="rounded=0;whiteSpace=wrap;html=1;fillColor=#fa6800;fontColor=#000000;strokeColor=#C73500;" vertex="1" parent="1">
          <mxGeometry x="305" y="280" width="120" height="60" as="geometry" />
        </mxCell>
        <mxCell id="RxAN3Sm5ADNWxIkwrC-l-2" value="Payment service" style="rounded=0;whiteSpace=wrap;html=1;fillColor=#fa6800;fontColor=#000000;strokeColor=#C73500;" vertex="1" parent="1">
          <mxGeometry x="540" y="460" width="120" height="60" as="geometry" />
        </mxCell>
        <mxCell id="RxAN3Sm5ADNWxIkwrC-l-3" value="Notification service" style="rounded=0;whiteSpace=wrap;html=1;fillColor=#fa6800;fontColor=#000000;strokeColor=#C73500;" vertex="1" parent="1">
          <mxGeometry x="460" y="690" width="120" height="60" as="geometry" />
        </mxCell>
        <mxCell id="RxAN3Sm5ADNWxIkwrC-l-4" value="Inventory service" style="rounded=0;whiteSpace=wrap;html=1;fillColor=#fa6800;fontColor=#000000;strokeColor=#C73500;" vertex="1" parent="1">
          <mxGeometry x="560" y="170" width="120" height="60" as="geometry" />
        </mxCell>
        <mxCell id="RxAN3Sm5ADNWxIkwrC-l-7" style="edgeStyle=orthogonalEdgeStyle;rounded=0;orthogonalLoop=1;jettySize=auto;html=1;entryX=0.5;entryY=0;entryDx=0;entryDy=0;" edge="1" parent="1" source="RxAN3Sm5ADNWxIkwrC-l-5">
          <mxGeometry relative="1" as="geometry">
            <mxPoint x="155" y="280.0000000000001" as="targetPoint" />
          </mxGeometry>
        </mxCell>
        <mxCell id="RxAN3Sm5ADNWxIkwrC-l-14" value="Envio pedido" style="edgeLabel;html=1;align=center;verticalAlign=middle;resizable=0;points=[];" vertex="1" connectable="0" parent="RxAN3Sm5ADNWxIkwrC-l-7">
          <mxGeometry x="0.1302" y="1" relative="1" as="geometry">
            <mxPoint as="offset" />
          </mxGeometry>
        </mxCell>
        <mxCell id="RxAN3Sm5ADNWxIkwrC-l-5" value="Customer" style="shape=umlActor;verticalLabelPosition=bottom;verticalAlign=top;html=1;outlineConnect=0;" vertex="1" parent="1">
          <mxGeometry x="140" y="140" width="30" height="60" as="geometry" />
        </mxCell>
        <mxCell id="RxAN3Sm5ADNWxIkwrC-l-16" style="edgeStyle=orthogonalEdgeStyle;rounded=0;orthogonalLoop=1;jettySize=auto;html=1;entryX=0.5;entryY=0;entryDx=0;entryDy=0;" edge="1" parent="1" source="RxAN3Sm5ADNWxIkwrC-l-8" target="RxAN3Sm5ADNWxIkwrC-l-15">
          <mxGeometry relative="1" as="geometry" />
        </mxCell>
        <mxCell id="RxAN3Sm5ADNWxIkwrC-l-8" value="FE" style="whiteSpace=wrap;html=1;aspect=fixed;" vertex="1" parent="1">
          <mxGeometry x="115" y="280" width="80" height="80" as="geometry" />
        </mxCell>
        <mxCell id="RxAN3Sm5ADNWxIkwrC-l-17" style="edgeStyle=orthogonalEdgeStyle;rounded=0;orthogonalLoop=1;jettySize=auto;html=1;entryX=0;entryY=0.5;entryDx=0;entryDy=0;" edge="1" parent="1" source="RxAN3Sm5ADNWxIkwrC-l-15" target="RxAN3Sm5ADNWxIkwrC-l-1">
          <mxGeometry relative="1" as="geometry" />
        </mxCell>
        <mxCell id="RxAN3Sm5ADNWxIkwrC-l-15" value="API Gateway" style="whiteSpace=wrap;html=1;aspect=fixed;fillColor=#60a917;fontColor=#ffffff;strokeColor=#2D7600;" vertex="1" parent="1">
          <mxGeometry x="115" y="410" width="80" height="80" as="geometry" />
        </mxCell>
        <mxCell id="RxAN3Sm5ADNWxIkwrC-l-18" value="Order DB" style="shape=cylinder3;whiteSpace=wrap;html=1;boundedLbl=1;backgroundOutline=1;size=15;fillColor=#f8cecc;strokeColor=#b85450;" vertex="1" parent="1">
          <mxGeometry x="335" y="70" width="60" height="80" as="geometry" />
        </mxCell>
        <mxCell id="RxAN3Sm5ADNWxIkwrC-l-22" value="Rabbit MQ&lt;br&gt;Evento: novo pedido" style="rounded=0;whiteSpace=wrap;html=1;fillColor=#dae8fc;strokeColor=#6c8ebf;" vertex="1" parent="1">
          <mxGeometry x="305" y="460" width="120" height="60" as="geometry" />
        </mxCell>
      </root>
    </mxGraphModel>
  </diagram>
</mxfile>
